<svg width="24" height="24" viewBox="0 0 24 24" fill="none" xmlns="http://www.w3.org/2000/svg">
<path d="M12.015 3.02719V3.03626C12.024 3.08158 12.024 3.13597 12.024 3.19036V9.7262C12.015 9.76246 11.9878 9.77153 11.9606 9.78966C11.7702 9.88031 11.5889 9.96189 11.3985 10.0435C11.1357 10.1613 10.8637 10.2882 10.6008 10.4061L9.649 10.8412C9.38612 10.959 9.12323 11.0769 8.86941 11.1947C8.56121 11.3398 8.24393 11.4757 7.93572 11.6208C7.67284 11.7386 7.40996 11.8655 7.13801 11.9834C6.92045 12.0831 6.70289 12.1737 6.49439 12.2735C6.47626 12.2825 6.45813 12.2916 6.44 12.2916C6.43094 12.2916 6.43094 12.2916 6.42188 12.2825L6.66663 11.8746C7.13801 11.095 7.60032 10.3245 8.0717 9.5449C8.57027 8.71093 9.07791 7.87695 9.57648 7.04297C10.0388 6.27245 10.5102 5.50193 10.9725 4.73141C11.3079 4.16938 11.6524 3.60735 11.9878 3.04532C11.9968 3.02719 12.0059 3.01813 12.0059 3H12.015C12.0059 3.00906 12.015 3.01813 12.015 3.02719Z" fill="#8A92B2"/>
<path d="M17.5801 12.3204L17.5892 12.3295L16.2566 13.1182L12.0686 15.5929C12.0505 15.6019 12.0324 15.611 12.0233 15.6201C11.9961 15.6201 11.9961 15.5929 11.9961 15.5838V15.5022V9.90009C11.9961 9.8729 11.9961 9.83664 12.0052 9.80944C12.0142 9.77318 12.0414 9.78225 12.0686 9.79131C12.1865 9.8457 12.3134 9.90009 12.4312 9.95448C12.7847 10.1176 13.1383 10.2808 13.4918 10.4349C13.8 10.5709 14.0992 10.7159 14.4074 10.8519C14.7156 10.9879 15.0238 11.1329 15.332 11.2689C15.5949 11.3867 15.8668 11.5137 16.1297 11.6315C16.3926 11.7493 16.6645 11.8763 16.9274 11.9941C17.1359 12.0847 17.3444 12.1845 17.5529 12.2751C17.5529 12.3023 17.562 12.3114 17.5801 12.3204Z" fill="#454A75"/>
<path d="M12.015 20.973C12.015 20.9821 12.0059 20.9912 12.0059 21.0002H11.9968C11.9968 20.9821 11.9787 20.973 11.9696 20.9549C11.4076 20.1662 10.8456 19.3685 10.2835 18.5799C9.71246 17.7731 9.1323 16.9573 8.56121 16.1505C8.00824 15.3709 7.44622 14.5822 6.89325 13.8026C6.74821 13.5941 6.60317 13.3947 6.45813 13.1862C6.44907 13.1681 6.44 13.159 6.42188 13.1318C6.44907 13.1318 6.4672 13.15 6.47626 13.159C7.26492 13.6213 8.0445 14.0837 8.83315 14.546C9.73965 15.0808 10.6371 15.6156 11.5436 16.1505L12.0059 16.4224C12.024 16.4405 12.024 16.4587 12.024 16.4768V20.8461C12.024 20.8914 12.024 20.9368 12.015 20.973Z" fill="#8A92B2"/>
<path d="M6.41211 12.3385V12.3295C6.70219 12.2026 6.9832 12.0666 7.27328 11.9397C7.64494 11.7675 8.01661 11.6043 8.38827 11.432C8.66928 11.3051 8.95936 11.1692 9.24038 11.0423C9.65737 10.8519 10.0653 10.6706 10.4823 10.4802C10.7633 10.3533 11.0443 10.2264 11.3344 10.0904C11.5338 9.99979 11.7423 9.90914 11.9417 9.81849C11.9599 9.80942 11.9871 9.80036 11.9961 9.78223C12.0052 9.78223 12.0052 9.79129 11.9961 9.80036V15.5566C11.9961 15.5838 11.9871 15.611 12.0052 15.6291C11.9871 15.6563 11.9689 15.6291 11.9599 15.6201C11.8783 15.5747 11.7967 15.5294 11.7151 15.475C9.96557 14.4416 8.20697 13.3991 6.45743 12.3657C6.44837 12.3567 6.43024 12.3476 6.41211 12.3385Z" fill="#62688F"/>
<path d="M17.5627 13.1318H17.5717C17.5717 13.15 17.5536 13.1681 17.5446 13.1862C15.8766 15.5341 14.2086 17.8909 12.5407 20.2388C12.3685 20.4835 12.1872 20.7283 12.0149 20.973C12.0059 20.964 12.0059 20.9549 12.0059 20.9458V20.8914V16.4949V16.4134C12.3866 16.1867 12.7583 15.9692 13.139 15.7425C14.6075 14.8723 16.076 14.0111 17.5355 13.1409C17.5446 13.15 17.5536 13.1409 17.5627 13.1318Z" fill="#62688F"/>
<path d="M12.0045 9.76233V9.7442V9.68981V3.10865C12.0045 3.08146 11.9954 3.06333 12.0135 3.03613C13.8537 6.09102 15.6939 9.13685 17.525 12.1917C17.5431 12.2189 17.5703 12.2552 17.5794 12.2915C17.4525 12.2461 17.3347 12.1827 17.2168 12.1283C17.0718 12.0648 16.9177 11.9923 16.7726 11.9289C16.682 11.8835 16.5823 11.8473 16.4916 11.802C16.3375 11.7294 16.1834 11.666 16.0293 11.5935C15.9387 11.5572 15.848 11.5119 15.7574 11.4665L15.1591 11.1946C15.0594 11.1493 14.9596 11.1039 14.8509 11.0586L14.4157 10.8683C14.3251 10.832 14.2344 10.7867 14.1438 10.7414L13.5455 10.4694C13.4458 10.4241 13.3461 10.3788 13.2373 10.3334L12.8022 10.1431C12.7025 10.0977 12.6118 10.0524 12.5121 10.0071C12.3399 9.9255 12.1676 9.84392 11.9863 9.7714C12.0135 9.76233 12.0045 9.76233 12.0045 9.76233Z" fill="#62688F"/>
</svg>
