<svg width="24" height="24" viewBox="0 0 24 24" fill="none" xmlns="http://www.w3.org/2000/svg">
<path fill-rule="evenodd" clip-rule="evenodd" d="M5.06075 10.4629H17.0445C17.1948 10.4629 17.3372 10.5234 17.4408 10.6312L19.3367 12.5694C19.6863 12.9271 19.4377 13.5372 18.9404 13.5372H6.95661C6.80639 13.5372 6.66394 13.4767 6.56034 13.3689L4.66448 11.4307C4.31225 11.073 4.56348 10.4629 5.06075 10.4629ZM4.66448 7.89359L6.56034 5.95542C6.66653 5.84759 6.80898 5.78711 6.95661 5.78711H18.9378C19.4351 5.78711 19.6863 6.39723 19.3341 6.75488L17.4408 8.69305C17.3346 8.80088 17.1922 8.86136 17.0445 8.86136H5.06075C4.56348 8.86136 4.31225 8.25125 4.66448 7.89359ZM19.3341 16.1065L17.4382 18.0447C17.332 18.1525 17.1896 18.213 17.042 18.213H5.06075C4.56348 18.213 4.31225 17.6029 4.66448 17.2452L6.56034 15.307C6.66653 15.1992 6.80898 15.1387 6.95661 15.1387H18.9378C19.4351 15.1387 19.6863 15.7488 19.3341 16.1065Z" fill="url(#paint0_linear_388_1879)"/>
<defs>
<linearGradient id="paint0_linear_388_1879" x1="5.35393" y1="18.7476" x2="18.8475" y2="5.45848" gradientUnits="userSpaceOnUse">
<stop stop-color="#CB4EE8"/>
<stop offset="1" stop-color="#10F4B1"/>
</linearGradient>
</defs>
</svg>
